<?xml version="1.0" encoding="utf-8"?>
<!-- Svg Vector Icons : http://www.onlinewebfonts.com/icon -->
<!DOCTYPE svg PUBLIC "-//W3C//DTD SVG 1.1//EN" "http://www.w3.org/Graphics/SVG/1.1/DTD/svg11.dtd">
<svg version="1.1" xmlns="http://www.w3.org/2000/svg" xmlns:xlink="http://www.w3.org/1999/xlink" x="0px" y="0px" viewBox="0 0 1000 1000" enable-background="new 0 0 1000 1000" xml:space="preserve">
<metadata> Svg Vector Icons : http://www.onlinewebfonts.com/icon </metadata>
<g><path d="M751.8,284.2c0,149.9-112.8,271.5-251.8,271.5c-139.1,0-251.8-121.5-251.8-271.5c0-149.9,112.8-271.5,251.8-271.5C639.1,12.8,751.8,134.3,751.8,284.2L751.8,284.2L751.8,284.2z M686.1,517.5c-46.1,54.4-112.4,79-186.1,79c-73.7,0-140-24.6-186.1-79C135.6,590.8,10,766.2,10,970.9c0,5.5,0.1,10.9,0.3,16.3h979.4c0.2-5.4,0.3-10.9,0.3-16.3C990,766.2,864.4,590.8,686.1,517.5L686.1,517.5z"/></g>
</svg>